<svg width="55" height="71" viewBox="0 0 55 71" fill="none" xmlns="http://www.w3.org/2000/svg">
<rect width="54.4333" height="70.098" fill="white"/>
<path d="M30.0774 16.9974C30.1432 16.9974 30.176 17.0631 30.176 17.1946C30.176 17.3262 30.1432 17.3919 30.0774 17.3919C29.1567 17.3919 28.4881 17.644 28.0716 18.1482C27.6551 18.6524 27.4468 19.4745 27.4468 20.6144V37.9434C27.4468 37.9873 27.392 38.0201 27.2824 38.0421C27.1728 38.064 27.0961 38.053 27.0522 38.0092L11.9263 19.6937L11.6304 19.3649V33.9647C11.6304 35.1046 11.8277 35.9266 12.2223 36.4308C12.6388 36.9131 13.2964 37.1542 14.1952 37.1542C14.261 37.1542 14.2939 37.22 14.2939 37.3515C14.2939 37.4831 14.261 37.5488 14.1952 37.5488C13.6472 37.5488 13.2307 37.5379 12.9457 37.5159L11.3016 37.4831L9.62458 37.5159C9.31767 37.5379 8.86828 37.5488 8.2764 37.5488C8.23256 37.5488 8.21063 37.4831 8.21063 37.3515C8.21063 37.22 8.23256 37.1542 8.2764 37.1542C9.21903 37.1542 9.88763 36.9131 10.2822 36.4308C10.6768 35.9266 10.8741 35.1046 10.8741 33.9647V18.5757C10.0192 17.7865 9.15326 17.3919 8.2764 17.3919C8.21063 17.3919 8.17775 17.3262 8.17775 17.1946C8.17775 17.0631 8.21063 16.9974 8.2764 16.9974L9.49305 17.0302C9.75611 17.0522 10.1178 17.0631 10.5782 17.0631C11.0604 17.0631 11.455 17.0522 11.7619 17.0302C12.0688 17.0083 12.31 16.9974 12.4853 16.9974C12.6607 16.9974 12.7813 17.0412 12.847 17.1289C12.9347 17.1946 13.0663 17.3591 13.2416 17.6221C13.5047 18.0167 13.7678 18.3784 14.0308 18.7072L26.6905 34.2606V20.6144C26.6905 19.4745 26.4932 18.6524 26.0986 18.1482C25.726 17.644 25.0902 17.3919 24.1915 17.3919C24.1476 17.3919 24.1257 17.3262 24.1257 17.1946C24.1257 17.0631 24.1476 16.9974 24.1915 16.9974L25.4739 17.0302C26.1315 17.0741 26.6686 17.096 27.0851 17.096C27.4797 17.096 28.0277 17.0741 28.7292 17.0302L30.0774 16.9974Z" fill="#FEB865"/>
<path d="M46.5634 47.6982C46.6511 47.6982 46.6949 47.7639 46.6949 47.8955C46.6949 48.027 46.6511 48.0928 46.5634 48.0928C46.1469 48.0928 45.5002 48.0709 44.6233 48.027C43.7465 47.9832 43.1107 47.9612 42.7161 47.9612C42.2339 47.9612 41.6201 47.9832 40.8747 48.027C40.1732 48.0709 39.6362 48.0928 39.2635 48.0928C39.1758 48.0928 39.132 48.027 39.132 47.8955C39.132 47.7639 39.1758 47.6982 39.2635 47.6982C40.0746 47.6982 40.6665 47.6215 41.0391 47.468C41.4118 47.3146 41.5981 47.0515 41.5981 46.6788C41.5981 46.3719 41.4557 45.9006 41.1707 45.2649L37.3892 37.2087H31.1744L28.3466 43.9167C28.0397 44.662 27.8862 45.2759 27.8862 45.7581C27.8862 47.0515 28.9604 47.6982 31.1087 47.6982C31.2183 47.6982 31.2731 47.7639 31.2731 47.8955C31.2731 48.027 31.2183 48.0928 31.1087 48.0928C30.7141 48.0928 30.1441 48.0709 29.3988 48.027C28.5658 47.9832 27.8424 47.9612 27.2286 47.9612C26.6586 47.9612 26.0009 47.9832 25.2556 48.027C24.598 48.0709 24.0499 48.0928 23.6115 48.0928C23.5019 48.0928 23.4471 48.027 23.4471 47.8955C23.4471 47.7639 23.5019 47.6982 23.6115 47.6982C24.2253 47.6982 24.7405 47.5886 25.157 47.3694C25.5954 47.1282 26.0009 46.7227 26.3736 46.1527C26.7682 45.5608 27.1957 44.7169 27.656 43.6208L34.5942 27.2454C34.638 27.1796 34.7148 27.1467 34.8244 27.1467C34.934 27.1467 34.9998 27.1796 35.0217 27.2454L42.7819 43.5879C43.5272 45.2101 44.163 46.3062 44.6891 46.8761C45.2152 47.4242 45.84 47.6982 46.5634 47.6982ZM31.4704 36.5182H37.0604L34.101 30.2705L31.4704 36.5182Z" fill="#FEB865"/>
</svg>
